<svg xmlns="http://www.w3.org/2000/svg" viewBox="0 0 841.9 595.3">
  <g fill="#61DAFB">
    <path d="M666.3 296.5c0-33.4-4.8-65.7-13.4-95.6h-98.6c8.5 29.9 13.3 62.2 13.3 95.6s-4.8 65.6-13.3 95.5h98.6c8.6-29.9 13.4-62.1 13.4-95.5z"/>
    <path d="M520.5 73.1C479.1 49.7 431.5 37.8 381 37.8s-98.1 11.9-139.5 35.3l49.5 85.7c27.1-15.6 58.3-24.4 90-24.4s62.9 8.8 90 24.4l49.5-85.7z"/>
    <circle cx="420.9" cy="296.5" r="45.7"/>
    <path d="M520.5 519.9l-49.5-85.6c-27.1 15.5-58.3 24.4-90 24.4s-62.9-8.9-90-24.4l-49.5 85.6c41.4 23.4 89 35.3 139.5 35.3s98.1-11.9 139.5-35.3z"/>
  </g>
</svg>